<svg xmlns="http://www.w3.org/2000/svg" xmlns:xlink="http://www.w3.org/1999/xlink" width="500" zoomAndPan="magnify" viewBox="0 0 375 374.999991" height="500" preserveAspectRatio="xMidYMid meet" version="1.0"><defs><clipPath id="ae42e8a6ff"><path d="M 9 9 L 366 9 L 366 366 L 9 366 Z M 9 9 " clip-rule="nonzero"/></clipPath><clipPath id="a207d088c6"><path d="M 365.3125 9.414062 L 365.582031 365.664062 L 9.332031 365.933594 L 9.0625 9.683594 Z M 365.3125 9.414062 " clip-rule="nonzero"/></clipPath><clipPath id="0db5221293"><path d="M 365.3125 9.414062 L 365.582031 365.664062 L 9.332031 365.933594 L 9.0625 9.683594 Z M 365.3125 9.414062 " clip-rule="nonzero"/></clipPath><clipPath id="7c8d2a7ab3"><path d="M 118 28 L 342 28 L 342 347 L 118 347 Z M 118 28 " clip-rule="nonzero"/></clipPath><clipPath id="9193b2d3ed"><path d="M 332.609375 23.007812 L 349.742188 339.792969 L 127.316406 351.820312 L 110.183594 35.035156 Z M 332.609375 23.007812 " clip-rule="nonzero"/></clipPath><clipPath id="a84bbf6dc0"><path d="M 332.609375 23.007812 L 349.742188 339.792969 L 127.316406 351.820312 L 110.183594 35.035156 Z M 332.609375 23.007812 " clip-rule="nonzero"/></clipPath><clipPath id="83d61ffc19"><path d="M 240 198 L 329 198 L 329 288 L 240 288 Z M 240 198 " clip-rule="nonzero"/></clipPath><clipPath id="0e6cc61abb"><path d="M 328.667969 198.84375 L 328.734375 287.53125 L 240.046875 287.601562 L 239.980469 198.910156 Z M 328.667969 198.84375 " clip-rule="nonzero"/></clipPath><clipPath id="3ae40583f5"><path d="M 328.703125 243.1875 C 328.683594 218.699219 308.8125 198.859375 284.324219 198.878906 C 259.832031 198.898438 239.996094 218.765625 240.011719 243.257812 C 240.03125 267.746094 259.898438 287.585938 284.390625 287.566406 C 308.882812 287.546875 328.71875 267.679688 328.703125 243.1875 Z M 328.703125 243.1875 " clip-rule="nonzero"/></clipPath></defs><rect x="-37.5" width="450" fill="#ffffff" y="-37.499999" height="449.999989" fill-opacity="1"/><rect x="-37.5" width="450" fill="#ffffff" y="-37.499999" height="449.999989" fill-opacity="1"/><g clip-path="url(#ae42e8a6ff)"><g clip-path="url(#a207d088c6)"><g clip-path="url(#0db5221293)"><path fill="#7c83db" d="M 187.632812 365.445312 C 184.722656 365.449219 181.8125 365.378906 178.902344 365.238281 C 175.992188 365.097656 173.089844 364.886719 170.191406 364.601562 C 167.292969 364.320312 164.402344 363.964844 161.523438 363.539062 C 158.640625 363.117188 155.773438 362.621094 152.914062 362.054688 C 150.058594 361.488281 147.21875 360.851562 144.390625 360.148438 C 141.566406 359.441406 138.757812 358.667969 135.972656 357.824219 C 133.183594 356.980469 130.417969 356.070312 127.675781 355.089844 C 124.933594 354.109375 122.214844 353.066406 119.523438 351.953125 C 116.832031 350.839844 114.171875 349.664062 111.539062 348.417969 C 108.902344 347.175781 106.300781 345.871094 103.734375 344.5 C 101.164062 343.128906 98.628906 341.695312 96.128906 340.199219 C 93.632812 338.703125 91.171875 337.148438 88.746094 335.53125 C 86.324219 333.917969 83.941406 332.242188 81.601562 330.507812 C 79.261719 328.777344 76.964844 326.984375 74.714844 325.140625 C 72.460938 323.292969 70.253906 321.394531 68.09375 319.441406 C 65.9375 317.488281 63.824219 315.480469 61.765625 313.421875 C 59.703125 311.363281 57.695312 309.257812 55.738281 307.101562 C 53.78125 304.945312 51.875 302.742188 50.027344 300.492188 C 48.179688 298.242188 46.386719 295.949219 44.648438 293.609375 C 42.910156 291.273438 41.234375 288.894531 39.613281 286.472656 C 37.992188 284.054688 36.433594 281.59375 34.9375 279.097656 C 33.4375 276.601562 32 274.070312 30.625 271.503906 C 29.25 268.933594 27.9375 266.335938 26.691406 263.703125 C 25.445312 261.070312 24.261719 258.410156 23.144531 255.722656 C 22.03125 253.03125 20.980469 250.316406 19.996094 247.574219 C 19.011719 244.832031 18.097656 242.070312 17.25 239.285156 C 16.402344 236.496094 15.625 233.691406 14.914062 230.867188 C 14.203125 228.042969 13.566406 225.203125 12.996094 222.347656 C 12.425781 219.492188 11.925781 216.625 11.496094 213.742188 C 11.066406 210.863281 10.707031 207.972656 10.417969 205.074219 C 10.132812 202.175781 9.914062 199.273438 9.769531 196.363281 C 9.625 193.457031 9.550781 190.546875 9.546875 187.632812 C 9.546875 184.722656 9.617188 181.8125 9.757812 178.902344 C 9.898438 175.992188 10.109375 173.089844 10.390625 170.191406 C 10.675781 167.292969 11.03125 164.402344 11.453125 161.523438 C 11.878906 158.640625 12.375 155.773438 12.941406 152.914062 C 13.507812 150.058594 14.144531 147.21875 14.847656 144.390625 C 15.554688 141.566406 16.328125 138.757812 17.171875 135.972656 C 18.015625 133.183594 18.925781 130.417969 19.90625 127.675781 C 20.882812 124.933594 21.929688 122.214844 23.042969 119.523438 C 24.15625 116.832031 25.332031 114.171875 26.574219 111.539062 C 27.820312 108.902344 29.125 106.300781 30.496094 103.734375 C 31.867188 101.164062 33.300781 98.628906 34.796875 96.128906 C 36.292969 93.632812 37.847656 91.171875 39.464844 88.746094 C 41.078125 86.324219 42.753906 83.941406 44.488281 81.601562 C 46.21875 79.261719 48.007812 76.964844 49.855469 74.714844 C 51.699219 72.460938 53.601562 70.253906 55.554688 68.09375 C 57.507812 65.9375 59.515625 63.824219 61.574219 61.765625 C 63.628906 59.703125 65.738281 57.695312 67.894531 55.738281 C 70.050781 53.78125 72.253906 51.875 74.503906 50.027344 C 76.753906 48.179688 79.046875 46.386719 81.382812 44.648438 C 83.722656 42.910156 86.101562 41.234375 88.519531 39.613281 C 90.941406 37.992188 93.398438 36.433594 95.898438 34.933594 C 98.394531 33.4375 100.925781 32 103.492188 30.625 C 106.0625 29.25 108.660156 27.9375 111.292969 26.691406 C 113.921875 25.445312 116.585938 24.261719 119.273438 23.144531 C 121.964844 22.03125 124.679688 20.980469 127.421875 19.996094 C 130.160156 19.011719 132.925781 18.097656 135.710938 17.25 C 138.496094 16.402344 141.304688 15.625 144.128906 14.914062 C 146.953125 14.203125 149.792969 13.566406 152.648438 12.996094 C 155.503906 12.425781 158.371094 11.925781 161.253906 11.496094 C 164.132812 11.066406 167.023438 10.707031 169.921875 10.417969 C 172.820312 10.132812 175.722656 9.914062 178.628906 9.769531 C 181.539062 9.625 184.449219 9.550781 187.363281 9.546875 C 190.273438 9.546875 193.183594 9.617188 196.09375 9.757812 C 199.003906 9.898438 201.90625 10.109375 204.804688 10.390625 C 207.703125 10.675781 210.59375 11.03125 213.472656 11.453125 C 216.355469 11.878906 219.222656 12.375 222.082031 12.941406 C 224.9375 13.507812 227.777344 14.144531 230.605469 14.847656 C 233.429688 15.554688 236.234375 16.328125 239.023438 17.171875 C 241.8125 18.015625 244.578125 18.925781 247.320312 19.90625 C 250.0625 20.882812 252.777344 21.929688 255.46875 23.042969 C 258.160156 24.15625 260.824219 25.332031 263.457031 26.574219 C 266.089844 27.820312 268.691406 29.125 271.261719 30.496094 C 273.832031 31.867188 276.367188 33.300781 278.867188 34.796875 C 281.363281 36.289062 283.824219 37.847656 286.246094 39.460938 C 288.671875 41.078125 291.050781 42.753906 293.394531 44.488281 C 295.734375 46.21875 298.03125 48.007812 300.28125 49.855469 C 302.535156 51.699219 304.742188 53.601562 306.898438 55.554688 C 309.058594 57.507812 311.167969 59.515625 313.230469 61.574219 C 315.292969 63.628906 317.300781 65.738281 319.257812 67.894531 C 321.214844 70.050781 323.117188 72.253906 324.96875 74.503906 C 326.816406 76.753906 328.609375 79.046875 330.347656 81.382812 C 332.082031 83.722656 333.761719 86.101562 335.382812 88.519531 C 337 90.941406 338.5625 93.398438 340.058594 95.898438 C 341.558594 98.394531 342.996094 100.925781 344.371094 103.492188 C 345.746094 106.058594 347.054688 108.660156 348.304688 111.292969 C 349.550781 113.921875 350.734375 116.585938 351.847656 119.273438 C 352.964844 121.964844 354.015625 124.679688 355 127.421875 C 355.980469 130.160156 356.898438 132.925781 357.746094 135.710938 C 358.59375 138.496094 359.371094 141.304688 360.082031 144.128906 C 360.789062 146.953125 361.429688 149.792969 362 152.648438 C 362.570312 155.503906 363.070312 158.371094 363.5 161.253906 C 363.929688 164.132812 364.289062 167.023438 364.578125 169.921875 C 364.863281 172.816406 365.082031 175.722656 365.226562 178.628906 C 365.371094 181.539062 365.445312 184.449219 365.445312 187.363281 C 365.449219 190.273438 365.378906 193.183594 365.238281 196.09375 C 365.097656 199.003906 364.886719 201.90625 364.601562 204.804688 C 364.320312 207.703125 363.964844 210.59375 363.539062 213.472656 C 363.117188 216.355469 362.621094 219.222656 362.054688 222.082031 C 361.488281 224.9375 360.851562 227.777344 360.148438 230.605469 C 359.441406 233.429688 358.667969 236.234375 357.824219 239.023438 C 356.980469 241.8125 356.070312 244.574219 355.089844 247.320312 C 354.113281 250.0625 353.066406 252.777344 351.953125 255.46875 C 350.839844 258.160156 349.664062 260.824219 348.421875 263.457031 C 347.175781 266.089844 345.871094 268.691406 344.5 271.261719 C 343.128906 273.832031 341.695312 276.367188 340.199219 278.863281 C 338.703125 281.363281 337.148438 283.824219 335.53125 286.246094 C 333.917969 288.671875 332.242188 291.050781 330.507812 293.394531 C 328.777344 295.734375 326.984375 298.03125 325.140625 300.28125 C 323.292969 302.535156 321.394531 304.742188 319.441406 306.898438 C 317.488281 309.058594 315.480469 311.167969 313.421875 313.230469 C 311.363281 315.292969 309.257812 317.300781 307.101562 319.257812 C 304.945312 321.214844 302.742188 323.117188 300.492188 324.96875 C 298.242188 326.816406 295.949219 328.609375 293.609375 330.347656 C 291.273438 332.082031 288.894531 333.761719 286.472656 335.382812 C 284.054688 337 281.59375 338.5625 279.097656 340.058594 C 276.601562 341.558594 274.070312 342.996094 271.503906 344.371094 C 268.933594 345.746094 266.335938 347.054688 263.703125 348.304688 C 261.070312 349.550781 258.410156 350.734375 255.722656 351.847656 C 253.03125 352.964844 250.316406 354.015625 247.574219 355 C 244.832031 355.980469 242.070312 356.898438 239.285156 357.746094 C 236.496094 358.59375 233.691406 359.371094 230.867188 360.082031 C 228.042969 360.789062 225.203125 361.429688 222.347656 362 C 219.492188 362.570312 216.625 363.070312 213.742188 363.5 C 210.863281 363.929688 207.972656 364.289062 205.074219 364.578125 C 202.175781 364.863281 199.273438 365.082031 196.363281 365.226562 C 193.457031 365.371094 190.546875 365.445312 187.632812 365.445312 Z M 187.632812 365.445312 " fill-opacity="1" fill-rule="nonzero"/></g></g></g><g clip-path="url(#7c8d2a7ab3)"><g clip-path="url(#9193b2d3ed)"><g clip-path="url(#a84bbf6dc0)"><path fill="#000000" d="M 238.425781 345.964844 C 236.605469 346.0625 234.78125 346.097656 232.957031 346.070312 C 231.132812 346.039062 229.304688 345.949219 227.480469 345.792969 C 225.652344 345.636719 223.832031 345.417969 222.007812 345.132812 C 220.1875 344.851562 218.371094 344.503906 216.558594 344.09375 C 214.746094 343.683594 212.9375 343.210938 211.136719 342.679688 C 209.335938 342.144531 207.546875 341.546875 205.761719 340.886719 C 203.980469 340.230469 202.207031 339.511719 200.445312 338.730469 C 198.683594 337.949219 196.9375 337.105469 195.199219 336.203125 C 193.464844 335.304688 191.746094 334.34375 190.039062 333.324219 C 188.332031 332.304688 186.644531 331.226562 184.972656 330.089844 C 183.300781 328.953125 181.648438 327.761719 180.015625 326.511719 C 178.378906 325.265625 176.769531 323.960938 175.175781 322.601562 C 173.585938 321.242188 172.015625 319.828125 170.46875 318.363281 C 168.921875 316.898438 167.402344 315.378906 165.90625 313.8125 C 164.410156 312.242188 162.941406 310.625 161.496094 308.953125 C 160.054688 307.285156 158.640625 305.570312 157.253906 303.804688 C 155.867188 302.039062 154.507812 300.230469 153.183594 298.375 C 151.855469 296.519531 150.5625 294.621094 149.296875 292.679688 C 148.035156 290.734375 146.804688 288.753906 145.605469 286.726562 C 144.410156 284.703125 143.246094 282.640625 142.117188 280.539062 C 140.992188 278.4375 139.898438 276.300781 138.84375 274.125 C 137.785156 271.953125 136.765625 269.746094 135.785156 267.503906 C 134.804688 265.261719 133.859375 262.992188 132.953125 260.6875 C 132.050781 258.386719 131.183594 256.054688 130.355469 253.699219 C 129.53125 251.339844 128.746094 248.957031 128 246.546875 C 127.253906 244.136719 126.550781 241.707031 125.886719 239.253906 C 125.226562 236.800781 124.605469 234.328125 124.027344 231.835938 C 123.445312 229.34375 122.910156 226.835938 122.417969 224.3125 C 121.925781 221.789062 121.476562 219.25 121.070312 216.699219 C 120.664062 214.148438 120.304688 211.585938 119.984375 209.015625 C 119.667969 206.445312 119.394531 203.867188 119.164062 201.28125 C 118.933594 198.695312 118.75 196.105469 118.609375 193.511719 C 118.46875 190.917969 118.375 188.324219 118.324219 185.730469 C 118.273438 183.132812 118.265625 180.542969 118.304688 177.949219 C 118.34375 175.359375 118.425781 172.773438 118.554688 170.195312 C 118.683594 167.613281 118.855469 165.042969 119.074219 162.480469 C 119.292969 159.917969 119.554688 157.367188 119.859375 154.828125 C 120.167969 152.289062 120.515625 149.761719 120.910156 147.25 C 121.304688 144.742188 121.742188 142.25 122.226562 139.773438 C 122.707031 137.296875 123.230469 134.84375 123.796875 132.410156 C 124.363281 129.976562 124.972656 127.566406 125.625 125.179688 C 126.277344 122.792969 126.96875 120.433594 127.707031 118.101562 C 128.441406 115.765625 129.214844 113.460938 130.03125 111.1875 C 130.847656 108.910156 131.703125 106.667969 132.597656 104.457031 C 133.492188 102.246094 134.425781 100.070312 135.394531 97.929688 C 136.367188 95.785156 137.378906 93.683594 138.425781 91.613281 C 139.472656 89.546875 140.554688 87.519531 141.671875 85.53125 C 142.789062 83.542969 143.945312 81.597656 145.132812 79.695312 C 146.320312 77.792969 147.542969 75.933594 148.796875 74.117188 C 150.050781 72.304688 151.339844 70.535156 152.65625 68.8125 C 153.976562 67.09375 155.324219 65.417969 156.703125 63.796875 C 158.082031 62.171875 159.488281 60.597656 160.925781 59.074219 C 162.359375 57.554688 163.824219 56.082031 165.3125 54.664062 C 166.800781 53.246094 168.316406 51.882812 169.855469 50.574219 C 171.394531 49.265625 172.957031 48.011719 174.542969 46.8125 C 176.128906 45.617188 177.738281 44.476562 179.367188 43.390625 C 180.992188 42.308594 182.640625 41.28125 184.308594 40.316406 C 185.976562 39.351562 187.660156 38.445312 189.359375 37.597656 C 191.0625 36.75 192.777344 35.964844 194.511719 35.238281 C 196.242188 34.511719 197.988281 33.847656 199.746094 33.246094 C 201.503906 32.640625 203.273438 32.101562 205.054688 31.625 C 206.835938 31.144531 208.625 30.730469 210.421875 30.378906 C 212.21875 30.027344 214.023438 29.738281 215.835938 29.511719 C 217.648438 29.285156 219.464844 29.125 221.285156 29.027344 C 223.105469 28.929688 224.929688 28.894531 226.753906 28.921875 C 228.578125 28.949219 230.40625 29.042969 232.230469 29.199219 C 234.054688 29.355469 235.878906 29.574219 237.699219 29.859375 C 239.523438 30.140625 241.339844 30.488281 243.152344 30.898438 C 244.964844 31.308594 246.773438 31.777344 248.570312 32.3125 C 250.371094 32.847656 252.164062 33.445312 253.945312 34.105469 C 255.730469 34.761719 257.5 35.480469 259.261719 36.261719 C 261.023438 37.042969 262.773438 37.886719 264.507812 38.785156 C 266.246094 39.6875 267.964844 40.648438 269.671875 41.667969 C 271.378906 42.6875 273.066406 43.765625 274.738281 44.902344 C 276.410156 46.039062 278.0625 47.230469 279.695312 48.480469 C 281.328125 49.726562 282.941406 51.03125 284.535156 52.390625 C 286.125 53.75 287.695312 55.164062 289.242188 56.628906 C 290.785156 58.09375 292.308594 59.613281 293.804688 61.179688 C 295.300781 62.75 296.769531 64.367188 298.214844 66.039062 C 299.65625 67.707031 301.070312 69.421875 302.457031 71.1875 C 303.84375 72.949219 305.199219 74.761719 306.527344 76.617188 C 307.855469 78.472656 309.148438 80.371094 310.414062 82.3125 C 311.675781 84.253906 312.90625 86.238281 314.101562 88.261719 C 315.300781 90.289062 316.464844 92.351562 317.589844 94.453125 C 318.71875 96.554688 319.8125 98.691406 320.867188 100.867188 C 321.925781 103.039062 322.941406 105.246094 323.925781 107.488281 C 324.90625 109.730469 325.851562 112 326.753906 114.304688 C 327.660156 116.605469 328.527344 118.9375 329.351562 121.292969 C 330.179688 123.652344 330.964844 126.035156 331.710938 128.445312 C 332.457031 130.851562 333.160156 133.285156 333.824219 135.738281 C 334.484375 138.191406 335.105469 140.664062 335.683594 143.15625 C 336.261719 145.648438 336.796875 148.15625 337.292969 150.679688 C 337.785156 153.203125 338.234375 155.742188 338.640625 158.292969 C 339.046875 160.84375 339.40625 163.40625 339.726562 165.976562 C 340.042969 168.546875 340.316406 171.125 340.546875 173.710938 C 340.777344 176.296875 340.960938 178.886719 341.101562 181.480469 C 341.242188 184.074219 341.335938 186.667969 341.386719 189.261719 C 341.4375 191.859375 341.445312 194.449219 341.40625 197.042969 C 341.367188 199.632812 341.28125 202.21875 341.152344 204.796875 C 341.027344 207.378906 340.851562 209.949219 340.636719 212.511719 C 340.417969 215.074219 340.15625 217.625 339.847656 220.164062 C 339.542969 222.703125 339.191406 225.230469 338.796875 227.738281 C 338.402344 230.25 337.964844 232.742188 337.484375 235.21875 C 337.003906 237.691406 336.480469 240.148438 335.914062 242.582031 C 335.34375 245.015625 334.734375 247.425781 334.085938 249.8125 C 333.433594 252.199219 332.738281 254.558594 332.003906 256.890625 C 331.269531 259.226562 330.496094 261.53125 329.679688 263.804688 C 328.863281 266.082031 328.007812 268.324219 327.113281 270.535156 C 326.21875 272.746094 325.285156 274.921875 324.3125 277.0625 C 323.339844 279.207031 322.332031 281.308594 321.285156 283.378906 C 320.238281 285.445312 319.15625 287.472656 318.039062 289.460938 C 316.917969 291.449219 315.765625 293.394531 314.578125 295.296875 C 313.390625 297.199219 312.167969 299.058594 310.914062 300.875 C 309.660156 302.6875 308.371094 304.457031 307.054688 306.179688 C 305.734375 307.898438 304.386719 309.570312 303.007812 311.195312 C 301.628906 312.820312 300.222656 314.394531 298.785156 315.917969 C 297.351562 317.4375 295.886719 318.910156 294.398438 320.328125 C 292.90625 321.746094 291.394531 323.109375 289.855469 324.417969 C 288.3125 325.726562 286.75 326.980469 285.164062 328.179688 C 283.578125 329.375 281.972656 330.515625 280.34375 331.601562 C 278.714844 332.683594 277.070312 333.707031 275.402344 334.675781 C 273.734375 335.640625 272.050781 336.546875 270.347656 337.394531 C 268.648438 338.242188 266.929688 339.027344 265.199219 339.753906 C 263.464844 340.480469 261.722656 341.144531 259.964844 341.746094 C 258.207031 342.347656 256.4375 342.890625 254.65625 343.367188 C 252.875 343.84375 251.085938 344.261719 249.289062 344.613281 C 247.488281 344.964844 245.683594 345.253906 243.875 345.480469 C 242.0625 345.703125 240.246094 345.867188 238.425781 345.964844 Z M 238.425781 345.964844 " fill-opacity="1" fill-rule="nonzero"/></g></g></g><g clip-path="url(#83d61ffc19)"><g clip-path="url(#0e6cc61abb)"><g clip-path="url(#3ae40583f5)"><path fill="#7c83db" d="M 328.667969 198.84375 L 328.734375 287.53125 L 240.046875 287.601562 L 239.980469 198.910156 Z M 328.667969 198.84375 " fill-opacity="1" fill-rule="nonzero"/></g></g></g></svg>